<svg width="17" height="16" viewBox="0 0 17 16" fill="none" xmlns="http://www.w3.org/2000/svg">
<path d="M2.45 4.7H15.05V14C15.05 14.718 14.468 15.3 13.75 15.3H3.75C3.03203 15.3 2.45 14.718 2.45 14V4.7Z" stroke="#333333" stroke-width="1.4"/>
<mask id="path-2-inside-1_2858_11622" fill="white">
<path d="M3.75 3C3.75 1.34315 5.09315 0 6.75 0H10.75C12.4069 0 13.75 1.34315 13.75 3V5H3.75V3Z"/>
</mask>
<path d="M2.35 3C2.35 0.569947 4.31995 -1.4 6.75 -1.4H10.75C13.1801 -1.4 15.15 0.569947 15.15 3H12.35C12.35 2.11634 11.6337 1.4 10.75 1.4H6.75C5.86634 1.4 5.15 2.11634 5.15 3H2.35ZM13.75 5H3.75H13.75ZM2.35 5V3C2.35 0.569947 4.31995 -1.4 6.75 -1.4V1.4C5.86634 1.4 5.15 2.11634 5.15 3V5H2.35ZM10.75 -1.4C13.1801 -1.4 15.15 0.569947 15.15 3V5H12.35V3C12.35 2.11634 11.6337 1.4 10.75 1.4V-1.4Z" fill="#333333" mask="url(#path-2-inside-1_2858_11622)"/>
<line x1="8.73125" y1="8" x2="8.73125" y2="10" stroke="#333333" stroke-width="1.4"/>
</svg>
